<svg id="light" enable-background="new 0 0 24 24" height="512" viewBox="0 0 24 24" width="512" xmlns="http://www.w3.org/2000/svg"><path d="m19.5 16h-1c-.276 0-.5-.224-.5-.5s.224-.5.5-.5h1c.827 0 1.5-.673 1.5-1.5v-1c0-.276.224-.5.5-.5h.99c.275 0 .5-.224.5-.5v-6c0-.276-.225-.5-.5-.5h-.99c-.276 0-.5-.224-.5-.5v-1c0-.827-.673-1.5-1.5-1.5h-17c-.827 0-1.5.673-1.5 1.5v10c0 .827.673 1.5 1.5 1.5h1c.276 0 .5.224.5.5s-.224.5-.5.5h-1c-1.379 0-2.5-1.122-2.5-2.5v-10c0-1.378 1.121-2.5 2.5-2.5h17c1.379 0 2.5 1.122 2.5 2.5v.5h.49c.827 0 1.5.673 1.5 1.5v6c0 .827-.673 1.5-1.5 1.5h-.49v.5c0 1.378-1.121 2.5-2.5 2.5z"/><path d="m11 20c-3.309 0-6-2.691-6-6v-1.5c0-.827.673-1.5 1.5-1.5h9c.827 0 1.5.673 1.5 1.5v1.5c0 3.309-2.691 6-6 6zm-4.5-8c-.275 0-.5.224-.5.5v1.5c0 2.757 2.243 5 5 5s5-2.243 5-5v-1.5c0-.276-.225-.5-.5-.5z"/><path d="m8.5 12c-.276 0-.5-.224-.5-.5v-4c0-.276.224-.5.5-.5s.5.224.5.5v4c0 .276-.224.5-.5.5z"/><path d="m13.5 12c-.276 0-.5-.224-.5-.5v-4c0-.276.224-.5.5-.5s.5.224.5.5v4c0 .276-.224.5-.5.5z"/><path d="m11 24c-.276 0-.5-.224-.5-.5v-4c0-.276.224-.5.5-.5s.5.224.5.5v4c0 .276-.224.5-.5.5z"/></svg>